# xmcd
#
# Track frame offsets:
#   150
#   15786
#   35538
#   50777
#   65062
#   81757
#   93072
#   107402
#   124801
#   138093
#   149037
#   164673
#   184425
#   199664
#   213949
#   230644
#   241959
#   256289
#   273688
#   286980
#
# Disc length: 3970 seconds
#
# Revision: 0
# Processed by: cddbd v1.4PL0 Copyright (c) Steve Scherf et al.
# Submitted via: uFREEDB 1.6.0
#
DISCID=2a0f8014
DTITLE=Shenandoah - Certified Hits
DYEAR=2002
DGENRE=Country
TTITLE0=Next to you, Next to me
TTITLE1=Sunday in the south
TTITLE2=Two dozen roses
TTITLE3=Church on cumberland road
TTITLE4=Ghost in this house
TTITLE5=Darned if I don't (Danged if I do)
TTITLE6=Heaven bound (I'm ready)
TTITLE7=Always have, always will
TTITLE8=All over but the shoutin'
TTITLE9=Can't buy me love
TTITLE10=Next to you, Next to me (2)
TTITLE11=Sunday in the south (2)
TTITLE12=Two dozen roses (2)
TTITLE13=Church on cumberland road (2)
TTITLE14=Ghost in this house (2)
TTITLE15=Darned if I don't (Danged if I do) (2)
TTITLE16=Heaven bound (I'm ready) (2)
TTITLE17=Always have, always will (2)
TTITLE18=All over but the shoutin' (2)
TTITLE19=Can't buy me love
EXTD=
EXTT0=
EXTT1=
EXTT2=
EXTT3=
EXTT4=
EXTT5=
EXTT6=
EXTT7=
EXTT8=
EXTT9=
EXTT10=
EXTT11=
EXTT12=
EXTT13=
EXTT14=
EXTT15=
EXTT16=
EXTT17=
EXTT18=
EXTT19=
PLAYORDER=
